<svg width="18" height="12" viewBox="0 0 18 12" fill="none" xmlns="http://www.w3.org/2000/svg">
<path d="M0.744385 10.1181C0.744385 9.69964 0.850746 9.32917 1.06347 9.00672C1.2762 8.68424 1.56568 8.43197 1.93188 8.24988C2.70965 7.87123 3.49049 7.57867 4.27441 7.3722C5.05832 7.16574 5.91663 7.06251 6.84932 7.06251C7.78202 7.06251 8.63859 7.16574 9.41903 7.3722C10.1995 7.57867 10.9804 7.87126 11.7618 8.24997C12.1273 8.43322 12.4163 8.68593 12.6289 9.00811C12.8415 9.33029 12.9478 9.70045 12.9478 10.1186V10.6891C12.9478 11.0014 12.833 11.2765 12.6032 11.5143C12.3734 11.752 12.0943 11.8709 11.766 11.8709H1.92624C1.59789 11.8709 1.31883 11.7561 1.08905 11.5263C0.859274 11.2965 0.744385 11.0174 0.744385 10.6891V10.1181ZM16.0777 11.8709H14.2355C14.329 11.6909 14.4015 11.5017 14.4531 11.3031C14.5046 11.1046 14.5304 10.8999 14.5304 10.6891V10.0841C14.5304 9.54106 14.407 9.02354 14.1602 8.53155C13.9135 8.03956 13.551 7.62387 13.0729 7.28447C13.6023 7.37047 14.1056 7.49599 14.583 7.66103C15.0604 7.82606 15.5196 8.02479 15.9607 8.25722C16.373 8.47409 16.6926 8.73493 16.9194 9.03974C17.1461 9.34454 17.2595 9.6764 17.2595 10.0353V10.6866C17.2595 11.0173 17.1439 11.2974 16.9127 11.5268C16.6815 11.7562 16.4032 11.8709 16.0777 11.8709ZM6.84932 5.76038C6.06842 5.76038 5.40391 5.48633 4.8558 4.93824C4.3077 4.39013 4.03366 3.72562 4.03366 2.94472C4.03366 2.1638 4.3077 1.49929 4.8558 0.951196C5.40391 0.403085 6.06842 0.129028 6.84932 0.129028C7.63023 0.129028 8.29473 0.403085 8.84284 0.951196C9.39094 1.49929 9.66499 2.1638 9.66499 2.94472C9.66499 3.72562 9.39094 4.39013 8.84284 4.93824C8.29473 5.48633 7.63023 5.76038 6.84932 5.76038ZM13.7419 2.93578C13.7419 3.7105 13.4678 4.37322 12.9197 4.92392C12.3716 5.47462 11.7071 5.74997 10.9262 5.74997C10.8477 5.74997 10.7434 5.74037 10.6135 5.72117C10.4835 5.70198 10.3765 5.68086 10.2924 5.65782C10.617 5.27824 10.8658 4.85659 11.0387 4.39288C11.2116 3.92917 11.298 3.44438 11.298 2.93851C11.298 2.43449 11.2091 1.95109 11.0312 1.4883C10.8533 1.02549 10.607 0.600981 10.2924 0.214759C10.3966 0.1763 10.5029 0.152397 10.6113 0.14305C10.7197 0.133703 10.8247 0.129028 10.9262 0.129028C11.7071 0.129028 12.3716 0.403855 12.9197 0.953508C13.4678 1.50316 13.7419 2.16392 13.7419 2.93578ZM1.91022 10.7051H11.782V10.1204C11.782 9.94293 11.7385 9.78594 11.6514 9.64945C11.5643 9.51295 11.4241 9.39261 11.2307 9.28845C10.5488 8.93908 9.85225 8.67506 9.14112 8.49636C8.42999 8.31768 7.66665 8.22834 6.85109 8.22834C6.03319 8.22834 5.26752 8.31768 4.55409 8.49636C3.84066 8.67506 3.14314 8.93908 2.46151 9.28845C2.26545 9.39261 2.12456 9.5132 2.03882 9.6502C1.95309 9.78721 1.91022 9.9436 1.91022 10.1194V10.7051ZM6.84803 4.59455C7.30295 4.59455 7.69186 4.43352 8.01478 4.11147C8.3377 3.78941 8.49916 3.40092 8.49916 2.94601C8.49916 2.49108 8.33813 2.10215 8.01607 1.77924C7.69402 1.45632 7.30553 1.29486 6.85061 1.29486C6.3957 1.29486 6.00678 1.45589 5.68386 1.77795C5.36095 2.1 5.19949 2.48849 5.19949 2.94342C5.19949 3.39834 5.36052 3.78726 5.68257 4.11017C6.00463 4.43309 6.39311 4.59455 6.84803 4.59455Z" fill="#56616B"/>
</svg>
