<svg width="16" height="16" viewBox="0 0 16 16" fill="none" xmlns="http://www.w3.org/2000/svg">
<path d="M4.69632 11.9727C4.82521 11.9727 4.93292 11.9285 5.01944 11.8402C5.10598 11.7519 5.14926 11.6414 5.14926 11.5088V7.12897C5.14926 7.00743 5.10436 6.90212 5.01457 6.81305C4.92478 6.724 4.81857 6.67947 4.69594 6.67947C4.56226 6.67947 4.45215 6.724 4.36561 6.81305C4.27908 6.90212 4.23582 7.00743 4.23582 7.12897V11.5088C4.23582 11.6414 4.28035 11.7519 4.3694 11.8402C4.45847 11.9285 4.56744 11.9727 4.69632 11.9727ZM8.00721 11.9727C8.13609 11.9727 8.2438 11.9285 8.33034 11.8402C8.41687 11.7519 8.46013 11.6414 8.46013 11.5088V4.47674C8.46013 4.35519 8.41524 4.24988 8.32546 4.16082C8.23567 4.07175 8.12946 4.02722 8.00684 4.02722C7.87316 4.02722 7.76305 4.07175 7.67651 4.16082C7.58996 4.24988 7.54669 4.35519 7.54669 4.47674V11.5088C7.54669 11.6414 7.59123 11.7519 7.6803 11.8402C7.76937 11.9285 7.87834 11.9727 8.00721 11.9727ZM11.3117 11.9727C11.4406 11.9727 11.5483 11.9285 11.6348 11.8402C11.7213 11.7519 11.7646 11.6414 11.7646 11.5088V9.72193C11.7646 9.60558 11.7197 9.50157 11.6299 9.40991C11.5402 9.31824 11.4339 9.27241 11.3113 9.27241C11.1776 9.27241 11.0675 9.31824 10.981 9.40991C10.8944 9.50157 10.8512 9.60558 10.8512 9.72193V11.5088C10.8512 11.6414 10.8957 11.7519 10.9848 11.8402C11.0738 11.9285 11.1828 11.9727 11.3117 11.9727ZM2.14257 15.0256C1.82869 15.0256 1.55557 14.9094 1.32319 14.677C1.0908 14.4446 0.974609 14.1715 0.974609 13.8576V2.14232C0.974609 1.82845 1.0908 1.55532 1.32319 1.32295C1.55557 1.09056 1.82869 0.974365 2.14257 0.974365H13.8579C14.1717 0.974365 14.4449 1.09056 14.6772 1.32295C14.9096 1.55532 15.0258 1.82845 15.0258 2.14232V13.8576C15.0258 14.1715 14.9096 14.4446 14.6772 14.677C14.4449 14.9094 14.1717 15.0256 13.8579 15.0256H2.14257ZM2.14446 14.1121H13.856C13.9201 14.1121 13.9788 14.0854 14.0323 14.032C14.0857 13.9786 14.1124 13.9198 14.1124 13.8557V2.14422C14.1124 2.08012 14.0857 2.02136 14.0323 1.96793C13.9788 1.91451 13.9201 1.8878 13.856 1.8878H2.14446C2.08037 1.8878 2.0216 1.91451 1.96817 1.96793C1.91476 2.02136 1.88805 2.08012 1.88805 2.14422V13.8557C1.88805 13.9198 1.91476 13.9786 1.96817 14.032C2.0216 14.0854 2.08037 14.1121 2.14446 14.1121Z" fill="#56616B"/>
</svg>
