<svg width="15" height="15" viewBox="0 0 15 15" fill="none" xmlns="http://www.w3.org/2000/svg">
<path d="M10.2528 7.48683L7.19195 4.42595C7.11395 4.34797 7.05893 4.26535 7.02687 4.1781C6.99483 4.09085 6.97881 3.99737 6.97881 3.89766C6.97881 3.79794 6.99483 3.70481 7.02687 3.61827C7.05893 3.53174 7.11395 3.44947 7.19195 3.37147L10.2528 0.310619C10.3308 0.232633 10.4134 0.177613 10.5007 0.145557C10.5879 0.113502 10.6814 0.0974731 10.7811 0.0974731C10.8808 0.0974731 10.974 0.113502 11.0605 0.145557C11.147 0.177613 11.2293 0.232633 11.3073 0.310619L14.3681 3.37147C14.4461 3.44947 14.5012 3.5321 14.5332 3.61935C14.5653 3.7066 14.5813 3.80008 14.5813 3.89979C14.5813 3.99951 14.5653 4.09263 14.5332 4.17916C14.5012 4.2657 14.4461 4.34797 14.3681 4.42595L11.3073 7.48683C11.2293 7.56481 11.1467 7.61984 11.0594 7.65189C10.9722 7.68393 10.8787 7.69995 10.779 7.69995C10.6793 7.69995 10.5861 7.68393 10.4996 7.65189C10.4131 7.61984 10.3308 7.56481 10.2528 7.48683ZM0.222412 5.86666V1.53979C0.222412 1.32637 0.294593 1.14748 0.438954 1.00312C0.583315 0.858758 0.762204 0.786578 0.975621 0.786578H5.3025C5.5159 0.786578 5.69478 0.858758 5.83914 1.00312C5.9835 1.14748 6.05568 1.32637 6.05568 1.53979V5.86666C6.05568 6.08006 5.9835 6.25895 5.83914 6.40331C5.69478 6.54767 5.5159 6.61985 5.3025 6.61985H0.975621C0.762204 6.61985 0.583315 6.54767 0.438954 6.40331C0.294593 6.25895 0.222412 6.08006 0.222412 5.86666ZM8.04289 13.6871V9.36024C8.04289 9.14684 8.11507 8.96796 8.25943 8.8236C8.40379 8.67924 8.58268 8.60706 8.79608 8.60706H13.123C13.3364 8.60706 13.5153 8.67924 13.6596 8.8236C13.804 8.96796 13.8762 9.14684 13.8762 9.36024V13.6871C13.8762 13.9005 13.804 14.0794 13.6596 14.2238C13.5153 14.3681 13.3364 14.4403 13.123 14.4403H8.79608C8.58268 14.4403 8.40379 14.3681 8.25943 14.2238C8.11507 14.0794 8.04289 13.9005 8.04289 13.6871ZM0.222412 13.6871V9.36024C0.222412 9.14684 0.294593 8.96796 0.438954 8.8236C0.583315 8.67924 0.762204 8.60706 0.975621 8.60706H5.3025C5.5159 8.60706 5.69478 8.67924 5.83914 8.8236C5.9835 8.96796 6.05568 9.14684 6.05568 9.36024V13.6871C6.05568 13.9005 5.9835 14.0794 5.83914 14.2238C5.69478 14.3681 5.5159 14.4403 5.3025 14.4403H0.975621C0.762204 14.4403 0.583315 14.3681 0.438954 14.2238C0.294593 14.0794 0.222412 13.9005 0.222412 13.6871ZM1.47239 5.36989H4.80572V2.03656H1.47239V5.36989ZM10.8009 6.27372L13.155 3.91956L10.8009 1.56539L8.4467 3.91956L10.8009 6.27372ZM9.29285 13.1903H12.6262V9.85702H9.29285V13.1903ZM1.47239 13.1903H4.80572V9.85702H1.47239V13.1903Z" fill="#56616B"/>
</svg>
